<svg xmlns="http://www.w3.org/2000/svg" width="256" height="256"><path fill="#03453d" fill-opacity=".016" fill-rule="evenodd" d="M0 128.004v128.004l128.25-.254 128.25-.254.254-127.75L257.008 0H0zm.485.496c0 70.4.119 99.053.265 63.672s.146-92.98 0-128S.485 58.1.485 128.5"/><path fill="#03453d" fill-opacity=".159" fill-rule="evenodd" d="M91 36.5V73h74V0H91zm92 0V73h73V0h-73zM0 128v37h73V91H0zm91.46-35.757c-.267.697-.368 17.24-.223 36.762L91.5 164.5h73v-73l-36.277-.263c-28.562-.206-36.38.008-36.763 1.006M183 128v35h73V93h-73zM0 219.5V256h73v-73H0zm91 0V256h74v-73H91zm92 0V256h73v-73h-73z"/><path fill="#03453d" fill-opacity=".28" fill-rule="evenodd" d="M92 36.5V73h72V0H92zm91 0V73h73V0h-73zM0 128v36h73V92H0zm0 91.5V256h73v-73H0zm91 0V256h74v-73H91zm92 0V256h73v-73h-73z"/><path fill="#03453d" fill-opacity=".381" fill-rule="evenodd" d="M183 36.5V73h73V0h-73zm-91 183V256h72v-73H92zm91 0V256h73v-73h-73z"/></svg>