<?xml version="1.0" encoding="UTF-8" standalone="no"?>
<svg
   xmlns:dc="http://purl.org/dc/elements/1.1/"
   xmlns:cc="http://creativecommons.org/ns#"
   xmlns:rdf="http://www.w3.org/1999/02/22-rdf-syntax-ns#"
   xmlns:svg="http://www.w3.org/2000/svg"
   xmlns="http://www.w3.org/2000/svg"
   xmlns:sodipodi="http://sodipodi.sourceforge.net/DTD/sodipodi-0.dtd"
   xmlns:inkscape="http://www.inkscape.org/namespaces/inkscape"
   version="1.1"
   id="Layer_1"
   x="0px"
   y="0px"
   width="128"
   height="128"
   viewBox="0 0 128 128"
   enable-background="new 0 0 122.88 95.089"
   xml:space="preserve"
   sodipodi:docname="settings.svg"
   inkscape:version="1.0.1 (3bc2e813f5, 2020-09-07)"><metadata
     id="metadata11"><rdf:RDF><cc:Work
         rdf:about=""><dc:format>image/svg+xml</dc:format><dc:type
           rdf:resource="http://purl.org/dc/dcmitype/StillImage" /><dc:title /></cc:Work></rdf:RDF></metadata><defs
     id="defs9" /><sodipodi:namedview
     pagecolor="#ffffff"
     bordercolor="#666666"
     borderopacity="1"
     objecttolerance="10"
     gridtolerance="10"
     guidetolerance="10"
     inkscape:pageopacity="0"
     inkscape:pageshadow="2"
     inkscape:window-width="2560"
     inkscape:window-height="1377"
     id="namedview7"
     showgrid="false"
     inkscape:zoom="4.1219076"
     inkscape:cx="0.222562"
     inkscape:cy="56.307481"
     inkscape:window-x="-8"
     inkscape:window-y="-8"
     inkscape:window-maximized="1"
     inkscape:current-layer="Layer_1"
     inkscape:document-rotation="0" /><g
     id="g4"
     transform="translate(3,20)"><path
       d="m 71.213694,5.7813136 c -0.88136,-0.8813582 -1.914257,-1.3159089 -3.110947,-1.3159089 -1.195575,0 -2.242957,0.4345507 -3.109833,1.3159089 L 60.25184,10.506773 C 58.980496,9.6844698 57.635613,8.9657892 56.229447,8.3228773 54.824395,7.6799654 53.388145,7.1284202 51.93741,6.6493008 v -7.269253 c 0,-1.2256557 -0.417839,-2.257435 -1.271344,-3.1098228 C 49.815904,-4.5821628 48.784121,-5 47.557347,-5 h -9.12225 c -1.166605,0 -2.181674,0.4178372 -3.064149,1.270225 -0.866876,0.8523878 -1.301428,1.8841671 -1.301428,3.1098228 v 6.65531 C 32.545245,6.3930266 31.064426,6.8420621 29.64266,7.3958363 28.208638,7.9484955 26.848156,8.5780364 25.561213,9.2800031 L 20.312047,4.1055076 C 19.489741,3.2386348 18.488042,2.7895991 17.276868,2.7895991 c -1.197804,0 -2.228472,0.4490357 -3.110947,1.3159085 L 7.7813483,10.506773 c -0.8813607,0.881358 -1.3159128,1.914252 -1.3159128,3.108709 0,1.196685 0.4345521,2.244064 1.3159128,3.110937 l 4.7265897,4.741059 C 11.685632,22.737703 10.968064,24.083696 10.32515,25.487629 9.6811208,26.89379 9.1295739,28.33115 8.6493383,29.780766 H 1.3822905 c -1.22788815,0 -2.25967076,0.417838 -3.1109471,1.270225 C -2.5810472,31.904493 -3,32.936273 -3,34.163043 v 9.122221 c 0,1.164373 0.4189528,2.182781 1.2702292,3.065254 0.8512763,0.865758 1.88417315,1.300308 3.1109471,1.300308 h 6.6531036 c 0.3587841,1.523156 0.8067069,3.003971 1.3615965,4.424618 0.5548896,1.436245 1.1822046,2.826807 1.8841736,4.171686 l -5.1745128,5.158896 c -0.8679898,0.823417 -1.3159127,1.825113 -1.3159127,3.037398 0,1.195571 0.4479229,2.228465 1.3159127,3.110937 l 6.4012868,6.474805 c 0.881361,0.822303 1.913142,1.227884 3.110946,1.227884 1.194461,0 2.240729,-0.404467 3.109833,-1.227884 l 4.739961,-4.814599 c 1.270229,0.82119 2.61734,1.538755 4.022392,2.183895 1.406166,0.640684 2.841302,1.195572 4.292038,1.673578 v 7.268138 c 0,1.225656 0.418952,2.256321 1.270229,3.107595 0.85239,0.854616 1.885287,1.273568 3.110947,1.273568 h 9.121137 c 1.166605,0 2.182787,-0.418952 3.065262,-1.273568 0.865762,-0.851274 1.300314,-1.881939 1.300314,-3.107595 v -6.65531 c 1.525389,-0.357669 3.005095,-0.806705 4.425746,-1.361593 1.43625,-0.552659 2.827931,-1.1822 4.1717,-1.884167 l 5.158913,5.17561 c 0.82342,0.866874 1.83849,1.315909 3.067492,1.315909 1.239031,0 2.256328,-0.447921 3.080863,-1.315909 l 6.474826,-6.400151 c 0.822306,-0.883587 1.227888,-1.915365 1.227888,-3.110937 0,-1.195571 -0.404468,-2.24295 -1.227888,-3.109823 l -4.814614,-4.741059 c 0.822306,-1.271339 1.539874,-2.616218 2.183902,-4.021264 0.640686,-1.405048 1.194462,-2.842408 1.673583,-4.292024 h 7.268161 c 1.22566,0 2.256328,-0.42118 3.107605,-1.271339 0.853505,-0.853502 1.272457,-1.884168 1.272457,-3.110938 v -9.121106 c 0,-1.166602 -0.418952,-2.181668 -1.272457,-3.066368 -0.851277,-0.866873 -1.881945,-1.30031 -3.107605,-1.30031 h -6.655331 c -0.358784,-1.465215 -0.807821,-2.930431 -1.361597,-4.380047 -0.552661,-1.46633 -1.182204,-2.841293 -1.884173,-4.129346 l 5.175627,-5.24692 c 0.866876,-0.822304 1.315913,-1.825114 1.315913,-3.03517 0,-1.1978 -0.447923,-2.228464 -1.315913,-3.110936 z M 112.78919,51.401805 c -0.5638,-0.395552 -1.16326,-0.533717 -1.81286,-0.418951 -0.6496,0.112537 -1.17775,0.446807 -1.56105,1.007266 l -2.12596,3.010656 c -0.7666,-0.325356 -1.56216,-0.586086 -2.38892,-0.803361 -0.8212,-0.216162 -1.65353,-0.382182 -2.48586,-0.50252 l -0.68637,-3.942154 c -0.117,-0.664082 -0.44013,-1.184429 -0.98499,-1.566611 -0.54152,-0.382181 -1.140979,-0.511432 -1.806178,-0.394438 l -4.948322,0.862416 c -0.630658,0.110309 -1.142092,0.434551 -1.540989,0.979411 -0.389983,0.542631 -0.529262,1.144316 -0.411153,1.810627 l 0.628429,3.607885 c -0.79445,0.337612 -1.554359,0.722023 -2.269699,1.156573 -0.72871,0.436779 -1.40728,0.904757 -2.036823,1.40839 L 85.021307,55.30719 c -0.530376,-0.39221 -1.113122,-0.539288 -1.771635,-0.426751 -0.6496,0.114766 -1.165491,0.453493 -1.562159,1.007266 l -2.8569,4.076977 c -0.39444,0.561573 -0.53372,1.163258 -0.420068,1.808399 0.113653,0.651826 0.447923,1.177744 1.008384,1.564383 l 3.011779,2.124841 c -0.325357,0.765477 -0.587202,1.562154 -0.803364,2.388914 -0.217276,0.822303 -0.382183,1.653521 -0.503635,2.485853 l -3.942166,0.686367 c -0.664085,0.11588 -1.184433,0.441236 -1.566616,0.984981 -0.383297,0.541518 -0.51032,1.142089 -0.394439,1.806171 l 0.861304,4.948306 c 0.110309,0.630656 0.432324,1.143203 0.980528,1.540984 0.542633,0.389982 1.14432,0.528146 1.809519,0.411152 l 3.60901,-0.628427 c 0.338728,0.794447 0.722025,1.55324 1.156577,2.271919 0.436781,0.72648 0.908103,1.419533 1.417308,2.082502 l -2.318725,3.289214 c -0.393325,0.52926 -0.540404,1.113118 -0.426752,1.771629 0.113652,0.649598 0.45238,1.166601 1.007269,1.562154 l 4.083675,2.904804 c 0.556004,0.362125 1.154349,0.485806 1.802835,0.372153 0.649599,-0.112537 1.179976,-0.433436 1.571072,-0.960468 l 2.115935,-3.059682 c 0.766594,0.32647 1.563273,0.588314 2.388922,0.803362 0.822306,0.216161 1.653526,0.382181 2.484747,0.501404 l 0.688597,3.944383 c 0.115881,0.665198 0.441238,1.184426 0.983871,1.564385 0.541519,0.383289 1.1421,0.512548 1.80618,0.396669 l 4.94609,-0.863538 c 0.634,-0.111419 1.14544,-0.433438 1.54434,-0.979406 0.38886,-0.543749 0.52814,-1.14209 0.41003,-1.809514 l -0.62954,-3.611229 c 0.79445,-0.337611 1.55547,-0.719793 2.27304,-1.155459 0.72537,-0.437892 1.41954,-0.906985 2.08362,-1.415074 l 3.28811,2.318717 c 0.52927,0.39221 1.12315,0.538174 1.78724,0.42118 0.673,-0.11588 1.1822,-0.455721 1.54656,-1.003924 l 2.90704,-4.083661 c 0.36101,-0.557117 0.48469,-1.154346 0.36993,-1.802829 -0.11254,-0.649597 -0.43121,-1.179972 -0.95825,-1.571067 l -3.06192,-2.115927 c 0.32759,-0.766593 0.58832,-1.563269 0.80448,-2.388916 0.21616,-0.822303 0.38107,-1.65352 0.50364,-2.486966 l 3.94105,-0.686367 c 0.6652,-0.115881 1.18443,-0.439008 1.5655,-0.983867 0.3833,-0.543746 0.51144,-1.140974 0.39556,-1.806171 l -0.86354,-4.948307 c -0.11031,-0.63177 -0.43344,-1.142088 -0.97941,-1.542098 -0.54263,-0.391094 -1.14432,-0.527031 -1.80952,-0.411151 l -3.60901,0.629542 c -0.33316,-0.762136 -0.71534,-1.513128 -1.15324,-2.247408 -0.44012,-0.743193 -0.90921,-1.429559 -1.41173,-2.061329 l 2.31092,-3.337127 c 0.39333,-0.529261 0.53929,-1.112004 0.42341,-1.77163 -0.11254,-0.649597 -0.45126,-1.164373 -1.00727,-1.561039 z M 98.573761,63.970348 c 1.193347,-0.209477 2.359959,-0.180507 3.506509,0.08357 1.14209,0.274103 2.1761,0.732052 3.09423,1.371621 0.91924,0.648483 1.69698,1.46633 2.34101,2.449083 0.63846,0.990553 1.05852,2.078043 1.26911,3.271386 0.20837,1.194457 0.17828,2.361059 -0.0847,3.509833 -0.2741,1.13986 -0.72982,2.171639 -1.37385,3.093109 -0.64849,0.917013 -1.46411,1.695862 -2.44686,2.339888 -0.99056,0.638456 -2.07805,1.059635 -3.27252,1.269111 -1.19223,0.207247 -2.358836,0.177163 -3.507613,-0.0858 -1.142092,-0.274101 -2.172761,-0.729823 -3.094234,-1.372735 -0.915902,-0.648482 -1.695867,-1.464101 -2.339896,-2.446854 -0.637343,-0.990552 -1.060753,-2.079158 -1.268001,-3.272501 -0.209476,-1.192228 -0.180506,-2.35883 0.08357,-3.507603 0.274102,-1.142089 0.732053,-2.173868 1.371625,-3.095338 0.649599,-0.914785 1.466335,-1.694748 2.449091,-2.338774 0.992784,-0.638455 2.080279,-1.059635 3.272511,-1.267996 z M 41.861373,21.991167 c 2.452434,0 4.768931,0.464635 6.966204,1.390562 2.185017,0.942641 4.084789,2.212866 5.699317,3.811789 1.598929,1.614523 2.869158,3.516518 3.811802,5.697071 0.928159,2.19838 1.390567,4.517099 1.390567,6.96841 0,2.452426 -0.462408,4.771143 -1.390567,6.96841 -0.942644,2.182781 -2.212873,4.084776 -3.811802,5.699298 -1.614528,1.600038 -3.5143,2.869149 -5.699317,3.81179 -2.197273,0.928156 -4.51377,1.390562 -6.966204,1.390562 -2.452433,0 -4.771159,-0.462406 -6.969546,-1.390562 -2.181675,-0.942641 -4.082562,-2.211752 -5.695975,-3.81179 -1.601158,-1.614522 -2.871387,-3.515403 -3.814031,-5.699298 -0.92593,-2.197267 -1.390566,-4.515984 -1.390566,-6.96841 0,-2.451311 0.464636,-4.77003 1.390566,-6.96841 0.942644,-2.181667 2.212873,-4.082548 3.814031,-5.697071 1.613413,-1.598923 3.5143,-2.870262 5.695975,-3.811789 2.197273,-0.925927 4.517113,-1.390562 6.969546,-1.390562 z"
       id="path2"
       sodipodi:nodetypes="csccccscsscsccccsccsccccsssscsccccsccsccccscsscsccccsccsccccscsscsccccsccccccccccccccccccccccccccccccccccccccccccccccccccccccccccccccccccccccccccccccccccccccccccccscccscccscccscccs"
       style="stroke-width:1.11424" /></g></svg>
